<svg id="Layer_4" data-name="Layer 4" xmlns="http://www.w3.org/2000/svg" viewBox="0 0 400 160"><defs><style>.cls-1{fill:#fff;}</style></defs><title>opbeat</title><g id="Primary"><g id="svg_logo_logo_white" data-name="svg/logo/logo_white"><path id="logo" class="cls-1" d="M168.88,87.22c0-8.74-2.32-12.64-9.47-12.64-6.87,0-9.29,3.9-9.29,12.45,0,8.83,2.51,12.73,9.47,12.73s9.29-4.09,9.29-12.55h0ZM179.75,87c0,13.2-5.39,22.31-20.43,22.31-14.39,0-20.06-9.2-20.06-22.12C139.26,74,144.74,65,159.69,65,174.18,65,179.75,74.11,179.75,87Zm26.41-12.27a11,11,0,0,0-8.27,3.53V96.51a11.53,11.53,0,0,0,8.27,3.07c7.52,0,9.57-5.21,9.57-12.36S213.78,74.76,206.16,74.76Zm-23.4,53.63v-8.46l4.83-1.3V74.95h-6v-9h15.51v4.74c2.14-2.79,5.2-5.67,11.7-5.67,11.7,0,17.83,8.09,17.83,22.21,0,13.85-5.76,22.12-17.83,22.12-5.76,0-8.92-2.23-10.87-4.37v14.41h9v9H182.76Zm66.94-53.63c-4.55,0-7.06,1.77-8.27,3.07V96a10.77,10.77,0,0,0,8.17,3.63c7.71,0,9.66-5.48,9.66-12.55S257.22,74.76,249.69,74.76Zm-8.27-5.3c1.86-2.14,5.11-4.46,10.77-4.46C264.37,65,270,73.28,270,87c0,13.38-6.13,22.31-17.83,22.31-6.41,0-10-2-12.35-4.27l-5.39,3.25h-3.34V52.64H225v-9h16.44V69.46Zm59.19,13.29a7.65,7.65,0,0,0,.09-1.3c0-5.2-3.53-7.81-7.8-7.81-5.85,0-8.08,4.09-8.45,9.11h16.16Zm6.32,13.76,3.34,8.18a32.11,32.11,0,0,1-16.16,4.65c-14.67,0-20.71-9.29-20.71-22.21,0-12.08,6.5-22.12,19.5-22.12s17.83,9.2,17.83,18.31a34.11,34.11,0,0,1-.74,7.25H284.37c0.19,5.95,3.34,9.57,9.85,9.57A24.89,24.89,0,0,0,306.94,96.51Zm22.64,4.18a15,15,0,0,0,9.75-3.9V90.28l-5.29.65c-7.43.84-9.57,2.32-9.57,5.39C324.47,99.2,326.23,100.69,329.58,100.69Zm-3.25-19.8h-9.1a12.29,12.29,0,0,1-1.39-5.76c0-5.85,5.39-10.13,17.09-10.13,12.54,0,17,3.72,17,15.8V97.25a2.19,2.19,0,0,0,2.42,2.51,10.38,10.38,0,0,0,2.51-.28v8.83a31,31,0,0,1-6,.56c-5.39,0-8.17-2.6-8.73-6.51a16.44,16.44,0,0,1-13.93,7c-7.89,0-12.72-4.65-12.72-12.17,0-9.29,8.08-12.27,20.62-13.2l5.29-.56V74.86a33.6,33.6,0,0,0-6.41-.56,28.62,28.62,0,0,0-6.59.56v6Zm45.39,13.75c0,3.44,1.95,4.93,4.83,4.93a42.74,42.74,0,0,0,6.41-.65l0.28,9.11a38.87,38.87,0,0,1-9.84,1.3c-8.64,0-12-5.67-12-13.2V74.95H353.7V66.86l7.71-.93V55.52l10.31-1.67V65.93h10v9h-10v19.7Zm-314.91-9c-13-4.78-19.82-6.19-22.33-6.59a34.09,34.09,0,0,1,5.1-6.37l47.69,0a34.19,34.19,0,0,1,6.89,9.59C89.59,85.78,76.94,93,56.81,85.65Zm26.31-4.55H74.67a2.28,2.28,0,1,0,0,4.55h8.45A2.28,2.28,0,1,0,83.12,81.11Zm0,13.89H74.67a2.28,2.28,0,1,1,0-4.55h8.45a2.28,2.28,0,1,1,0,4.55h0Zm0,9.3H74.67a2.28,2.28,0,1,1,0-4.55h8.45a2.28,2.28,0,1,1,0,4.55h0Zm0,9.34H74.67a2.28,2.28,0,1,1,0-4.55h8.45a2.28,2.28,0,1,1,0,4.55h0ZM90.77,67l-0.94-.85-52.8,0L36.09,67a40.73,40.73,0,0,0,0,60.29l0.93,0.85,52.8,0,0.93-.85A40.73,40.73,0,0,0,90.77,67ZM43.4,56.11l-0.17-.43q-0.3-.62-0.71-1.32c-0.14-.25-0.27-0.45-0.35-0.59h0L42,53.56a27.54,27.54,0,0,0-5-5.88l-3-2.54L87.49,49a3.2,3.2,0,0,1,.83.16l0.43,0.15-0.15.44a3.23,3.23,0,0,1-.39.75L87.85,51c-1,1.45-2.8,5-3.47,6.28H43.87C43.74,56.93,43.58,56.53,43.4,56.11Zm63.71,9.68a27.91,27.91,0,0,0-10.7-8.47H90.62l0.09-.16,2.06-3.57c1.83-2.7,2.33-4.93,1.5-6.64s-3.46-3.22-6.39-3.44l-55.56-4q-0.47,0-.88,0c-3.47,0-4.62,1.73-5,2.76-0.69,1.89.15,3.89,2.45,5.81,0,0,2.64,2.45,5.09,5a12.1,12.1,0,0,1,2.74,4.32l0.09,5.75L93.2,63a25.63,25.63,0,0,1,8.62,7.11c6.05,7.42,11.55,20.95,9,36.86h6.9c2.45-17.72-3.87-32.87-10.65-41.19h0Z"/></g></g></svg>