<svg id="Layer_4" data-name="Layer 4" xmlns="http://www.w3.org/2000/svg" viewBox="0 0 400 160"><defs><style>.cls-1{fill:#fff;}</style></defs><title>log artboards</title><g id="Primary"><g id="svg_logo_logo_white" data-name="svg/logo/logo_white"><path id="logo" class="cls-1" d="M172.48,86.87c0-7.81-2.08-11.31-8.47-11.31-6.15,0-8.31,3.49-8.31,11.14,0,7.9,2.24,11.39,8.47,11.39s8.31-3.66,8.31-11.22h0Zm9.72-.17c0,11.81-4.82,20-18.28,20-12.88,0-17.94-8.23-17.94-19.78,0-11.8,4.9-19.87,18.27-19.87C177.22,67,182.2,75.15,182.2,86.7Zm23.62-11a9.8,9.8,0,0,0-7.39,3.16V95.18a10.31,10.31,0,0,0,7.39,2.74c6.73,0,8.56-4.66,8.56-11.06S212.64,75.73,205.83,75.73Zm-20.93,48v-7.56l4.32-1.16V75.9h-5.4V67.83h13.87v4.24c1.91-2.49,4.65-5.07,10.47-5.07,10.47,0,15.95,7.23,15.95,19.87,0,12.39-5.15,19.78-15.95,19.78-5.15,0-8-2-9.72-3.91v12.88h8.06v8.06h-21.6Zm59.87-48c-4.07,0-6.31,1.58-7.39,2.74V94.68a9.64,9.64,0,0,0,7.31,3.24c6.9,0,8.64-4.91,8.64-11.22S251.5,75.73,244.77,75.73ZM237.37,71c1.66-1.91,4.57-4,9.64-4C257.89,67,263,74.4,263,86.7c0,12-5.48,20-15.95,20-5.73,0-9-1.83-11-3.82l-4.82,2.91h-3V55.94h-5.48V47.88h14.7V71Zm52.95,11.89a6.84,6.84,0,0,0,.08-1.16c0-4.65-3.16-7-7-7-5.23,0-7.23,3.66-7.56,8.15h14.45ZM296,95.18l3,7.32a28.72,28.72,0,0,1-14.45,4.16c-13.12,0-18.52-8.31-18.52-19.87C266,76,271.8,67,283.43,67s15.95,8.23,15.95,16.38a30.51,30.51,0,0,1-.66,6.48H275.78c0.17,5.32,3,8.56,8.81,8.56A22.26,22.26,0,0,0,296,95.18Zm20.25,3.74a13.44,13.44,0,0,0,8.72-3.49V89.61l-4.74.58c-6.65.75-8.56,2.08-8.56,4.82C311.65,97.59,313.23,98.92,316.22,98.92Zm-2.91-17.71h-8.14a11,11,0,0,1-1.25-5.15c0-5.24,4.82-9.06,15.28-9.06,11.21,0,15.2,3.33,15.2,14.13V95.85a2,2,0,0,0,2.16,2.24,9.28,9.28,0,0,0,2.24-.25v7.9a27.73,27.73,0,0,1-5.4.5c-4.82,0-7.31-2.33-7.81-5.82a14.71,14.71,0,0,1-12.46,6.23c-7.06,0-11.38-4.16-11.38-10.89,0-8.31,7.23-11,18.44-11.8l4.74-.5V75.81a30.06,30.06,0,0,0-5.73-.5,25.6,25.6,0,0,0-5.9.5v5.4Zm40.6,12.3c0,3.08,1.74,4.41,4.32,4.41a38.23,38.23,0,0,0,5.73-.58l0.25,8.15a34.77,34.77,0,0,1-8.81,1.16c-7.73,0-10.72-5.07-10.72-11.8v-19H337.8V68.66l6.89-.83V58.52l9.22-1.5V67.83h9V75.9h-9V93.52Zm-281.68-8c-11.67-4.27-17.73-5.54-20-5.9a30.5,30.5,0,0,1,4.56-5.7l42.66,0a30.58,30.58,0,0,1,6.17,8.57C101.56,85.59,90.24,92.07,72.24,85.47Zm23.53-4.07H88.22a2,2,0,1,0,0,4.07h7.55A2,2,0,1,0,95.77,81.41Zm0,12.42H88.22a2,2,0,1,1,0-4.07h7.55a2,2,0,1,1,0,4.07h0Zm0,8.32H88.22a2,2,0,1,1,0-4.07h7.55a2,2,0,1,1,0,4.07h0Zm0,8.35H88.22a2,2,0,1,1,0-4.07h7.55a2,2,0,1,1,0,4.07h0Zm6.84-41.73L101.77,68,54.54,68l-0.83.76a36.43,36.43,0,0,0,0,53.93l0.83,0.76,47.23,0,0.83-.76A36.43,36.43,0,0,0,102.61,68.77ZM60.24,59l-0.15-.38q-0.26-.55-0.63-1.18c-0.13-.23-0.24-0.4-0.32-0.53h0L59,56.77a24.64,24.64,0,0,0-4.47-5.26l-2.7-2.27,47.84,3.45a2.86,2.86,0,0,1,.75.14L100.82,53l-0.14.39a2.89,2.89,0,0,1-.35.67l-0.33.49c-0.87,1.29-2.5,4.43-3.11,5.62H60.67C60.55,59.78,60.41,59.42,60.24,59Zm57,8.66a25,25,0,0,0-9.57-7.58h-5.18l0.08-.14,1.84-3.2c1.63-2.41,2.09-4.41,1.34-5.94S102.66,48,100,47.78l-49.7-3.58-0.79,0c-3.11,0-4.13,1.54-4.47,2.46-0.61,1.69.14,3.48,2.19,5.2,0,0,2.37,2.19,4.55,4.45a10.82,10.82,0,0,1,2.45,3.86l0.08,5.14,50.43-.07a22.92,22.92,0,0,1,7.71,6.36c5.41,6.63,10.33,18.73,8.09,33h6.17c2.19-15.85-3.46-29.4-9.53-36.84h0Z"/></g></g></svg>